# xmcd
#
# Track frame offsets:
#	183
#	18300
#	29605
#	40893
#	52120
#	64013
#	77030
#	90968
#	108803
#	121308
#	138953
#	154273
#
# Disc length: 2232 seconds
#
# Revision: 3
# Processed by: cddbd v1.5.2PL0 Copyright (c) Steve Scherf et al.
# Submitted via: audiograbber 1.83.01
#
DISCID=9308b60c
DTITLE=Willie Nelson - Six Hours At Pedernales
DYEAR=1994
DGENRE=Country
TTITLE0=Nothing's Changed, Nothing's New
TTITLE1=Chase The Moon
TTITLE2=Are You Sure
TTITLE3=The Party's Over
TTITLE4=We're Not Talking Anymore
TTITLE5=Turn Me Loose And Let Me Swing
TTITLE6=Once You're Past The Blues
TTITLE7=It Won't Be Easy
TTITLE8=Stray Cats, Cowbowys, and Girls Of The Night
TTITLE9=The Best Worst Thing
TTITLE10=It Should Be Easier Now
TTITLE11=My Own Peculiar Way
EXTD=
EXTT0=
EXTT1=
EXTT2=
EXTT3=
EXTT4=
EXTT5=
EXTT6=
EXTT7=
EXTT8=
EXTT9=
EXTT10=
EXTT11=
PLAYORDER=
